<!DOCTYPE svg PUBLIC "-//W3C//DTD SVG 1.1//EN" "http://www.w3.org/Graphics/SVG/1.1/DTD/svg11.dtd">
<!-- Uploaded to: SVG Repo, www.svgrepo.com, Transformed by: SVG Repo Mixer Tools -->
<svg width="64px" height="64px" viewBox="0 0 24.00 24.00" fill="none" xmlns="http://www.w3.org/2000/svg">
<g id="SVGRepo_bgCarrier" stroke-width="0">
<rect x="0" y="0" width="24.00" height="24.00" rx="12" fill="#ffffff" strokewidth="0"/>
</g>
<g id="SVGRepo_tracerCarrier" stroke-linecap="round" stroke-linejoin="round"/>
<g id="SVGRepo_iconCarrier"> <path fill-rule="evenodd" clip-rule="evenodd" d="M12 6C9.79086 6 8 7.79086 8 10V11H7C5.067 11 3.5 12.567 3.5 14.5C3.5 16.433 5.067 18 7 18H17C18.933 18 20.5 16.433 20.5 14.5C20.5 12.567 18.933 11 17 11H16V10C16 7.79086 14.2091 6 12 6ZM6.07036 9.07824C6.51381 6.20213 8.99974 4 12 4C15.0003 4 17.4862 6.20213 17.9296 9.07824C20.5245 9.51997 22.5 11.7793 22.5 14.5C22.5 17.5376 20.0376 20 17 20H7C3.96243 20 1.5 17.5376 1.5 14.5C1.5 11.7793 3.47551 9.51997 6.07036 9.07824Z" fill="#0097A7"/> </g>
</svg>