<!DOCTYPE svg PUBLIC "-//W3C//DTD SVG 1.1//EN" "http://www.w3.org/Graphics/SVG/1.1/DTD/svg11.dtd">
<!-- Uploaded to: SVG Repo, www.svgrepo.com, Transformed by: SVG Repo Mixer Tools -->
<svg width="64px" height="64px" viewBox="-2.4 -2.4 28.80 28.80" fill="none" xmlns="http://www.w3.org/2000/svg">
<g id="SVGRepo_bgCarrier" stroke-width="0">
<path transform="translate(-2.4, -2.4), scale(1.7999999999999998)" fill="#ffffff" d="M9.166.33a2.25 2.25 0 00-2.332 0l-5.25 3.182A2.25 2.25 0 00.5 5.436v5.128a2.25 2.25 0 001.084 1.924l5.25 3.182a2.25 2.25 0 002.332 0l5.25-3.182a2.25 2.25 0 001.084-1.924V5.436a2.25 2.25 0 00-1.084-1.924L9.166.33z" strokewidth="0"/>
</g>
<g id="SVGRepo_tracerCarrier" stroke-linecap="round" stroke-linejoin="round"/>
<g id="SVGRepo_iconCarrier"> <path fill-rule="evenodd" clip-rule="evenodd" d="M19 0C17.3431 0 16 1.34315 16 3H7C3.68629 3 1 5.68629 1 9V18C1 19.6569 2.34315 21 4 21H12H20C21.6569 21 23 19.6569 23 18V9C23 7.12635 22.1412 5.45329 20.7957 4.35299C21.5283 3.78599 22 2.89808 22 1.9C22 0.850659 21.1493 0 20.1 0H19ZM16 5V10C16 10.5523 16.4477 11 17 11C17.5523 11 18 10.5523 18 10V5.12602C19.7252 5.57006 21 7.13616 21 9V18C21 18.5523 20.5523 19 20 19H13V9C13 7.46329 12.4223 6.06151 11.4722 5H16ZM18.9 3H18C18 2.44772 18.4477 2 19 2H19.9955C19.945 2.56065 19.4738 3 18.9 3ZM3 9C3 6.79086 4.79086 5 7 5C9.20914 5 11 6.79086 11 9V19H4C3.44772 19 3 18.5523 3 18V9ZM5 9C4.44772 9 4 9.44772 4 10C4 10.5523 4.44772 11 5 11H9C9.55228 11 10 10.5523 10 10C10 9.44772 9.55228 9 9 9H5Z" fill="#000000"/> </g>
</svg>